<svg width="966" height="712" viewBox="0 0 966 712" fill="none" xmlns="http://www.w3.org/2000/svg">
<path d="M966 580.714C966 627.935 743.933 711.714 470 711.714C196.067 711.714 0 541.935 0 494.714C0 447.494 196.067 540.714 470 540.714C743.933 540.714 966 533.494 966 580.714Z" fill="#3F3D56"/>
<path opacity="0.1" d="M966 580.714C966 627.935 743.933 711.714 470 711.714C196.067 711.714 0 541.935 0 494.714C0 447.494 196.067 540.714 470 540.714C743.933 540.714 966 533.494 966 580.714Z" fill="black"/>
<path d="M966 580.214C966 627.435 743.933 665.714 470 665.714C196.067 665.714 0 541.935 0 494.714C0 447.494 196.067 494.714 470 494.714C743.933 494.714 966 532.994 966 580.214Z" fill="#3F3D56"/>
<path d="M394.191 447.146L384.146 511.277C384.146 511.277 334.695 537.548 369.465 538.32C404.235 539.093 568.041 538.32 568.041 538.32C568.041 538.32 599.72 538.32 549.497 510.504L539.452 443.282L394.191 447.146Z" fill="#2F2E41"/>
<path opacity="0.1" d="M362.47 537.624C370.367 530.598 384.145 523.277 384.145 523.277L394.19 459.145L539.451 459.282L549.496 522.504C561.208 528.991 568.463 533.963 572.707 537.778C579.158 536.306 586.207 530.837 549.496 510.504L539.451 443.282L394.19 447.145L384.145 511.277C384.145 511.277 342.592 533.355 362.47 537.624Z" fill="black"/>
<path d="M770.263 0.157593H161.834C149.126 0.157593 138.824 10.4595 138.824 23.1676V433.021C138.824 445.729 149.126 456.031 161.834 456.031H770.263C782.971 456.031 793.273 445.729 793.273 433.021V23.1676C793.273 10.4595 782.971 0.157593 770.263 0.157593Z" fill="#2F2E41"/>
<path d="M771.252 24.4966H160.845V366.015H771.252V24.4966Z" fill="#3F3D56"/>
<path d="M466.048 17.5426C468.182 17.5426 469.911 15.8129 469.911 13.6793C469.911 11.5456 468.182 9.81592 466.048 9.81592C463.914 9.81592 462.185 11.5456 462.185 13.6793C462.185 15.8129 463.914 17.5426 466.048 17.5426Z" fill="#F2F2F2"/>
<path d="M793.273 393.059V433.021C793.274 436.043 792.679 439.035 791.522 441.827C790.366 444.619 788.671 447.156 786.535 449.293C784.398 451.429 781.861 453.124 779.069 454.28C776.277 455.437 773.285 456.032 770.263 456.031H161.834C158.812 456.032 155.82 455.437 153.028 454.28C150.236 453.124 147.7 451.429 145.563 449.293C143.426 447.156 141.731 444.619 140.575 441.827C139.419 439.035 138.824 436.043 138.824 433.021V393.059H793.273Z" fill="#2F2E41"/>
<path d="M636.808 580.044V587.771H221.113V581.59L221.685 580.044L231.93 552.228H628.308L636.808 580.044Z" fill="#2F2E41"/>
<path d="M796.781 572.48C796.024 575.717 793.165 579.132 786.705 582.362C763.525 593.952 716.393 579.271 716.393 579.271C716.393 579.271 680.077 573.09 680.077 556.864C681.097 556.166 682.16 555.534 683.261 554.971C693.006 549.815 725.319 537.093 782.613 555.51C786.834 556.835 790.605 559.305 793.504 562.647C795.826 565.365 797.646 568.812 796.781 572.48Z" fill="#2F2E41"/>
<path opacity="0.1" d="M796.781 572.48C768.409 583.351 743.119 584.162 717.165 566.136C704.076 557.05 692.185 554.801 683.261 554.971C693.006 549.815 725.319 537.093 782.614 555.51C786.835 556.835 790.605 559.306 793.504 562.647C795.826 565.365 797.646 568.812 796.781 572.48Z" fill="black"/>
<path d="M761.207 566.136C766.754 566.136 771.251 564.752 771.251 563.046C771.251 561.339 766.754 559.955 761.207 559.955C755.659 559.955 751.162 561.339 751.162 563.046C751.162 564.752 755.659 566.136 761.207 566.136Z" fill="#F2F2F2"/>
<path d="M466.048 439.419C474.156 439.419 480.729 432.846 480.729 424.738C480.729 416.63 474.156 410.057 466.048 410.057C457.94 410.057 451.367 416.63 451.367 424.738C451.367 432.846 457.94 439.419 466.048 439.419Z" fill="#F2F2F2"/>
<path opacity="0.1" d="M636.808 580.044V587.771H221.113V581.59L221.685 580.044H636.808Z" fill="black"/>
<path d="M561.607 168.552V255.098L538.728 301.257V301.262L538.003 302.719L477.433 298.719L454.149 297.179L400.109 293.609V190.085L454.149 191.609L478.315 192.292L539.453 194.019L561.607 168.552Z" fill="#6C63FF"/>
<path opacity="0.1" d="M561.607 173.658V255.098L556.018 266.374V266.378L550.285 277.936V277.94L538.729 301.257L540.021 214.711L540.281 197.253L551.271 185.095V185.091L556.062 179.791L561.607 173.658Z" fill="black"/>
<path d="M564.713 145.57V175.799L561.607 180.747L556.058 189.588L551.143 197.419L540.281 214.724L540.02 214.711L395.347 207.27V177.455L395.712 177.062L412.984 158.365L419.236 151.599L430.545 139.358L564.713 145.57Z" fill="#6C63FF"/>
<path opacity="0.1" d="M540.281 184.909V214.724L395.347 207.27V177.455L395.712 177.062L540.281 184.909Z" fill="black"/>
<path opacity="0.15" d="M564.713 145.57V175.799L540.281 214.724V184.909L564.713 145.57Z" fill="black"/>
<path d="M556.075 159.479L556.062 179.791L556.058 189.588L556.017 266.374V266.378L550.285 277.936L551.143 197.419L551.271 185.095V185.091L551.466 166.9L412.984 158.365L419.236 151.599L556.075 159.479Z" fill="#2F2E41"/>
<path d="M488.105 160.477L478.402 181.55L478.315 192.292L477.433 298.719L454.149 297.179V180.147L466.572 160.477H488.105Z" fill="#2F2E41"/>
<path d="M456.15 161.895C450.544 163.76 444.519 163.972 438.796 162.504C437.681 162.289 436.636 161.804 435.751 161.093C434.8 160.041 434.149 158.752 433.869 157.362C432.856 154.49 432.296 151.477 432.206 148.433C432.276 145.393 433.439 142.221 435.919 140.461C436.423 140.157 436.896 139.802 437.329 139.402C437.846 138.749 438.219 137.993 438.42 137.185C440.117 132.125 443.406 126.781 448.681 125.971C453.548 125.223 457.978 128.623 461.728 131.814L469.959 138.819C470.873 136.364 472.507 134.243 474.647 132.733C476.788 131.224 479.335 130.397 481.954 130.361C484.573 130.326 487.142 131.083 489.323 132.533C491.504 133.984 493.195 136.06 494.175 138.489C499.162 132.87 505.449 128.557 512.485 125.925C514.045 125.344 515.876 124.871 517.298 125.736C518.176 126.384 518.842 127.278 519.213 128.305C521.453 133.209 522.668 138.52 522.781 143.91C523.356 143.713 523.981 143.714 524.556 143.912C525.131 144.111 525.623 144.495 525.955 145.005C526.592 146.044 526.956 147.227 527.011 148.445C527.231 150.326 527.34 152.219 527.339 154.113C527.338 156.11 527.153 158.267 525.851 159.782C524.169 161.74 521.265 161.947 518.685 162.008C519.927 163.111 519.321 165.331 517.947 166.265C516.572 167.198 514.795 167.215 513.134 167.199C506.73 167.137 499.918 166.955 494.591 163.4C492.488 161.996 490.726 160.127 488.618 158.731C483.449 155.311 476.96 155.147 470.977 155.431C465.577 155.686 461.291 160.173 456.15 161.895Z" fill="#2F2E41"/>
<path d="M454.977 160.477C454.977 160.477 401.558 167.931 394.104 200.23L405.285 198.574L413.153 212.653C413.153 212.653 421.435 181.182 445.867 173.728C470.298 166.274 478.994 165.032 478.994 165.032C478.994 165.032 495.972 169.173 511.294 218.451L519.99 206.442L535.311 209.755C535.311 209.755 524.131 171.244 493.902 160.477L454.977 160.477Z" fill="#2F2E41"/>
</svg>
