<svg width="693" height="712" viewBox="0 0 693 712" fill="none" xmlns="http://www.w3.org/2000/svg">
<path d="M693 580.521C693 627.914 531.891 712 333.153 712C134.415 712 0 578.242 0 530.849C0 483.456 134.415 540.374 333.153 540.374C531.891 540.374 693 533.128 693 580.521Z" fill="#3F3D56"/>
<path opacity="0.1" d="M693 586.011C693 631.425 531.891 712 333.153 712C134.415 712 0 575.973 0 530.559C0 485.145 134.415 547.541 333.153 547.541C531.891 547.541 693 540.597 693 586.011Z" fill="black"/>
<path d="M693 580.466C693 627.705 531.891 666 333.153 666C134.415 666 0 579.195 0 531.955C0 484.716 134.415 494.931 333.153 494.931C531.891 494.931 693 533.226 693 580.466Z" fill="#3F3D56"/>
<path d="M276.191 447.146L266.146 511.277C266.146 511.277 216.695 537.548 251.465 538.32C286.235 539.093 450.041 538.32 450.041 538.32C450.041 538.32 481.72 538.32 431.497 510.504L421.452 443.282L276.191 447.146Z" fill="#2F2E41"/>
<path opacity="0.1" d="M244.47 537.624C252.367 530.598 266.145 523.277 266.145 523.277L276.19 459.145L421.451 459.282L431.496 522.504C443.208 528.991 450.463 533.963 454.707 537.778C461.158 536.306 468.207 530.837 431.496 510.504L421.451 443.282L276.19 447.145L266.145 511.277C266.145 511.277 224.592 533.355 244.47 537.624Z" fill="black"/>
<path d="M652.263 0.157593H43.8343C31.1262 0.157593 20.8242 10.4595 20.8242 23.1676V433.021C20.8242 445.729 31.1262 456.031 43.8343 456.031H652.263C664.971 456.031 675.273 445.729 675.273 433.021V23.1676C675.273 10.4595 664.971 0.157593 652.263 0.157593Z" fill="#2F2E41"/>
<path d="M653.252 24.4966H42.8447V366.015H653.252V24.4966Z" fill="#3F3D56"/>
<path d="M348.048 17.5426C350.182 17.5426 351.911 15.8129 351.911 13.6793C351.911 11.5456 350.182 9.81592 348.048 9.81592C345.914 9.81592 344.185 11.5456 344.185 13.6793C344.185 15.8129 345.914 17.5426 348.048 17.5426Z" fill="#F2F2F2"/>
<path d="M675.273 393.059V433.021C675.274 436.043 674.679 439.035 673.522 441.827C672.366 444.619 670.671 447.156 668.535 449.293C666.398 451.429 663.861 453.124 661.069 454.28C658.277 455.437 655.285 456.032 652.263 456.031H43.8342C40.8124 456.032 37.8201 455.437 35.0282 454.28C32.2364 453.124 29.6996 451.429 27.5629 449.293C25.4261 447.156 23.7312 444.619 22.575 441.827C21.4188 439.035 20.8238 436.043 20.8242 433.021V393.059H675.273Z" fill="#2F2E41"/>
<path d="M511.808 580.044V587.771H96.1133V581.59L96.6853 580.044L106.93 552.228H503.308L511.808 580.044Z" fill="#2F2E41"/>
<path opacity="0.1" d="M511.808 580.044V587.771H96.1133V581.59L96.6853 580.044H511.808Z" fill="black"/>
<path d="M648.781 572.48C648.024 575.717 645.165 579.132 638.705 582.362C615.525 593.952 568.393 579.271 568.393 579.271C568.393 579.271 532.077 573.09 532.077 556.864C533.097 556.166 534.16 555.534 535.261 554.971C545.006 549.815 577.319 537.093 634.613 555.51C638.834 556.835 642.605 559.305 645.504 562.647C647.826 565.365 649.646 568.812 648.781 572.48Z" fill="#2F2E41"/>
<path opacity="0.1" d="M648.781 572.48C620.409 583.351 595.119 584.162 569.165 566.136C556.076 557.05 544.185 554.801 535.261 554.971C545.006 549.815 577.319 537.093 634.614 555.51C638.835 556.835 642.605 559.306 645.504 562.647C647.826 565.365 649.646 568.812 648.781 572.48Z" fill="black"/>
<path d="M613.207 566.136C618.754 566.136 623.251 564.752 623.251 563.046C623.251 561.339 618.754 559.955 613.207 559.955C607.659 559.955 603.162 561.339 603.162 563.046C603.162 564.752 607.659 566.136 613.207 566.136Z" fill="#F2F2F2"/>
<path d="M348.048 439.419C356.156 439.419 362.729 432.846 362.729 424.738C362.729 416.63 356.156 410.057 348.048 410.057C339.94 410.057 333.367 416.63 333.367 424.738C333.367 432.846 339.94 439.419 348.048 439.419Z" fill="#F2F2F2"/>
<path d="M443.607 168.552V255.098L420.728 301.257V301.262L420.003 302.719L359.433 298.719L336.149 297.179L282.109 293.609V190.085L336.149 191.609L360.315 192.292L421.453 194.019L443.607 168.552Z" fill="#6C63FF"/>
<path opacity="0.1" d="M443.607 173.658V255.098L438.018 266.374V266.378L432.285 277.936V277.94L420.729 301.257L422.021 214.711L422.281 197.253L433.271 185.095V185.091L438.062 179.791L443.607 173.658Z" fill="black"/>
<path d="M446.713 145.57V175.799L443.607 180.747L438.058 189.588L433.143 197.419L422.281 214.724L422.02 214.711L277.347 207.27V177.455L277.712 177.062L294.984 158.365L301.236 151.599L312.545 139.358L446.713 145.57Z" fill="#6C63FF"/>
<path opacity="0.1" d="M422.281 184.909V214.724L277.347 207.27V177.455L277.712 177.062L422.281 184.909Z" fill="black"/>
<path opacity="0.15" d="M446.713 145.57V175.799L422.281 214.724V184.909L446.713 145.57Z" fill="black"/>
<path d="M438.075 159.479L438.062 179.791L438.058 189.588L438.017 266.374V266.378L432.285 277.936L433.143 197.419L433.271 185.095V185.091L433.466 166.9L294.984 158.365L301.236 151.599L438.075 159.479Z" fill="#2F2E41"/>
<path d="M370.105 160.477L360.402 181.55L360.315 192.292L359.433 298.719L336.149 297.179V180.147L348.572 160.477H370.105Z" fill="#2F2E41"/>
<path d="M338.15 161.895C332.544 163.76 326.519 163.972 320.796 162.504C319.681 162.289 318.636 161.804 317.751 161.093C316.8 160.041 316.149 158.752 315.869 157.362C314.856 154.49 314.296 151.477 314.206 148.433C314.276 145.393 315.439 142.221 317.919 140.461C318.423 140.157 318.896 139.802 319.329 139.402C319.846 138.749 320.219 137.993 320.42 137.185C322.117 132.125 325.406 126.781 330.681 125.971C335.548 125.223 339.978 128.623 343.728 131.814L351.959 138.819C352.873 136.364 354.507 134.243 356.647 132.733C358.788 131.224 361.335 130.397 363.954 130.361C366.573 130.326 369.142 131.083 371.323 132.533C373.504 133.984 375.195 136.06 376.175 138.489C381.162 132.87 387.449 128.557 394.485 125.925C396.045 125.344 397.876 124.871 399.298 125.736C400.176 126.384 400.842 127.278 401.213 128.305C403.453 133.209 404.668 138.52 404.781 143.91C405.356 143.713 405.981 143.714 406.556 143.912C407.131 144.111 407.623 144.495 407.955 145.005C408.592 146.044 408.956 147.227 409.011 148.445C409.231 150.326 409.34 152.219 409.339 154.113C409.338 156.11 409.153 158.267 407.851 159.782C406.169 161.74 403.265 161.947 400.685 162.008C401.927 163.111 401.321 165.331 399.947 166.265C398.572 167.198 396.795 167.215 395.134 167.199C388.73 167.137 381.918 166.955 376.591 163.4C374.488 161.996 372.726 160.127 370.618 158.731C365.449 155.311 358.96 155.147 352.977 155.431C347.577 155.686 343.291 160.173 338.15 161.895Z" fill="#2F2E41"/>
<path d="M336.977 160.477C336.977 160.477 283.558 167.931 276.104 200.23L287.285 198.574L295.153 212.653C295.153 212.653 303.435 181.182 327.867 173.728C352.298 166.274 360.994 165.032 360.994 165.032C360.994 165.032 377.972 169.173 393.294 218.451L401.99 206.442L417.311 209.755C417.311 209.755 406.131 171.244 375.902 160.477L336.977 160.477Z" fill="#2F2E41"/>
</svg>
